<svg xmlns="http://www.w3.org/2000/svg" viewBox="0 0 1280 720">
  <!-- Background -->
  <rect width="1280" height="720" fill="#0f172a"/>
  <!-- Header -->
  <rect width="1280" height="60" fill="#1e293b"/>
  <circle cx="1240" cy="30" r="20" fill="#06b6d4"/>
  <!-- Messages area -->
  <g opacity="0.6">
    <rect x="40" y="80" width="400" height="40" rx="8" fill="#264e45" opacity="0.3"/>
    <rect x="40" y="130" width="350" height="40" rx="8" fill="#06b6d4" opacity="0.2"/>
    <rect x="40" y="180" width="420" height="40" rx="8" fill="#264e45" opacity="0.3"/>
    <rect x="40" y="280" width="380" height="40" rx="8" fill="#06b6d4" opacity="0.2"/>
    <rect x="40" y="380" width="400" height="40" rx="8" fill="#264e45" opacity="0.3"/>
    <rect x="40" y="480" width="350" height="40" rx="8" fill="#06b6d4" opacity="0.2"/>
  </g>
  <!-- Input area -->
  <rect y="660" width="1280" height="60" fill="#1e293b"/>
  <rect x="40" y="670" width="1000" height="40" rx="8" fill="#0f172a" stroke="#06b6d4" stroke-width="2"/>
  <rect x="1060" y="670" width="40" height="40" rx="8" fill="#06b6d4"/>
  <rect x="1120" y="670" width="40" height="40" rx="8" fill="#06b6d4"/>
  <rect x="1180" y="670" width="40" height="40" rx="8" fill="#06b6d4"/>
</svg>
